<svg version="1.2" xmlns="http://www.w3.org/2000/svg" viewBox="0 0 434 791" width="434" height="791">
	<title>step2-bg-svg</title>
	<defs>
		<linearGradient id="g1" x1="33" y1="594" x2="33" y2="674" gradientUnits="userSpaceOnUse">
			<stop offset="0" stop-color="#6ac7bb" stop-opacity="0"/>
			<stop offset="1" stop-color="#6ac7bb"/>
		</linearGradient>
		<linearGradient id="g2" x1="113" y1="594" x2="113" y2="674" gradientUnits="userSpaceOnUse">
			<stop offset="0" stop-color="#6ac7bb" stop-opacity="0"/>
			<stop offset="1" stop-color="#6ac7bb"/>
		</linearGradient>
		<linearGradient id="g3" x1="193" y1="594" x2="193" y2="674" gradientUnits="userSpaceOnUse">
			<stop offset="0" stop-color="#6ac7bb" stop-opacity="0"/>
			<stop offset="1" stop-color="#6ac7bb"/>
		</linearGradient>
		<linearGradient id="g4" x1="273" y1="594" x2="273" y2="674" gradientUnits="userSpaceOnUse">
			<stop offset="0" stop-color="#6ac7bb" stop-opacity="0"/>
			<stop offset="1" stop-color="#6ac7bb"/>
		</linearGradient>
		<linearGradient id="g5" x1="353" y1="594" x2="353" y2="674" gradientUnits="userSpaceOnUse">
			<stop offset="0" stop-color="#6ac7bb" stop-opacity="0"/>
			<stop offset="1" stop-color="#6ac7bb"/>
		</linearGradient>
		<linearGradient id="g6" x1="413" y1="594.1" x2="413" y2="673.8" gradientUnits="userSpaceOnUse">
			<stop offset="0" stop-color="#6ac7bb" stop-opacity="0"/>
			<stop offset="1" stop-color="#6ac7bb"/>
		</linearGradient>
	</defs>
	<style>
		.s0 { fill: #635ca8 } 
		.s1 { opacity: 0;fill: #6ac7bb;stroke: #000000 } 
		.s2 { opacity: .5;fill: #6ac7bb } 
		.s3 { opacity: .3;fill: url(#g1) } 
		.s4 { opacity: .3;fill: url(#g2) } 
		.s5 { opacity: .3;fill: url(#g3) } 
		.s6 { opacity: .3;fill: url(#g4) } 
		.s7 { opacity: .3;fill: url(#g5) } 
		.s8 { opacity: 0;fill: url(#g6);stroke: #000000 } 
	</style>
	<g id="Group_44">
		<g id="Layer">
			<path id="jake-nackos-IF9TK5Uy-KI-unsplash-2" class="s0" d="m-7-6h440v800h-440z"/>
		</g>
		<path id="Subtraction_14" class="s1" d="m152.2 794h-78.4q0.8-0.1 1.7-0.2 0.9-0.1 1.7-0.3 0.9-0.3 1.7-0.5 0.8-0.3 1.6-0.6c12-4.8 26.1-19 30.8-30.9q0.4-0.9 0.7-1.8 0.3-0.9 0.5-1.9 0.2-0.9 0.3-1.9 0.1-0.9 0.2-1.9 0 1 0.1 1.9 0.2 1 0.4 1.9 0.2 1 0.5 1.9 0.2 0.9 0.6 1.8 0.5 1.3 1.1 2.4 0.6 1.2 1.2 2.4 0.7 1.1 1.4 2.2 0.7 1.1 1.5 2.2 0.8 1.2 1.7 2.4 0.9 1.1 1.9 2.2 0.9 1.2 1.9 2.2 1 1.1 2.1 2.1 1 1.1 2.1 2.1 1.1 1 2.2 1.9 1.1 1 2.3 1.9 1.1 0.9 2.3 1.7 1.1 0.8 2.2 1.5 1.1 0.7 2.2 1.4 1.2 0.6 2.4 1.2 1.2 0.6 2.4 1.1 0.8 0.3 1.6 0.6 0.8 0.2 1.7 0.4 0.8 0.2 1.7 0.4 0.8 0.1 1.7 0.2z"/>
		<path id="Subtraction_13" class="s1" d="m72.2 794h-78.4q0.8-0.1 1.7-0.2 0.9-0.1 1.7-0.3 0.9-0.3 1.7-0.5 0.8-0.3 1.6-0.6 1.3-0.5 2.4-1.1 1.2-0.6 2.4-1.2 1.1-0.7 2.2-1.4 1.1-0.7 2.2-1.5 1.2-0.9 2.3-1.8 1.2-0.9 2.3-1.8 1.1-1 2.2-1.9 1.1-1 2.1-2.1 1.1-1 2-2.1 1-1.1 2-2.2 0.9-1.1 1.8-2.2 0.9-1.2 1.8-2.4 0.8-1.1 1.5-2.2 0.7-1.1 1.3-2.2 0.7-1.2 1.3-2.4 0.5-1.1 1-2.4 0.4-0.9 0.7-1.8 0.3-0.9 0.5-1.9 0.2-0.9 0.3-1.9 0.1-0.9 0.2-1.9 0 1 0.1 1.9 0.2 1 0.4 1.9 0.2 1 0.5 1.9 0.2 0.9 0.6 1.8 0.5 1.3 1.1 2.4 0.6 1.2 1.2 2.4 0.7 1.1 1.4 2.2 0.7 1.1 1.5 2.2 0.8 1.2 1.7 2.4 1 1.1 1.9 2.2 1 1.2 1.9 2.2 1 1.1 2.1 2.1 1 1.1 2.1 2.1 1.1 1 2.2 1.9 1.1 1 2.3 1.9 1.1 0.9 2.3 1.7 1.1 0.8 2.2 1.5 1.1 0.7 2.2 1.4 1.2 0.6 2.4 1.2 1.2 0.6 2.4 1.1 0.8 0.3 1.6 0.6 0.8 0.2 1.7 0.4 0.8 0.2 1.7 0.4 0.8 0.1 1.7 0.2z"/>
		<path id="Path_92" class="s2" d="m120.5 712.4c12-4.8 26.1-18.9 30.8-30.9q0.4-0.9 0.7-1.8 0.3-0.9 0.5-1.9 0.2-0.9 0.3-1.9 0.1-0.9 0.2-1.9 0 1 0.1 1.9 0.1 1 0.4 1.9 0.2 1 0.5 1.9 0.2 0.9 0.6 1.8c4.8 12 19 26.1 30.9 30.9q0.9 0.4 1.8 0.6 0.9 0.3 1.9 0.5 0.9 0.2 1.9 0.4 0.9 0.1 1.9 0.1-1 0.1-1.9 0.2-1 0.1-1.9 0.3-1 0.2-1.9 0.5-0.9 0.3-1.8 0.7c-11.9 4.8-26.1 18.9-30.9 30.8q-0.4 0.9-0.6 1.8-0.3 0.9-0.5 1.9-0.3 0.9-0.4 1.9-0.1 0.9-0.1 1.9-0.1-1-0.2-1.9-0.1-1-0.3-1.9-0.2-1-0.5-1.9-0.3-0.9-0.7-1.8c-4.8-11.9-18.8-26.1-30.8-30.8q-0.9-0.4-1.8-0.7-0.9-0.3-1.9-0.5-0.9-0.2-1.9-0.3-0.9-0.1-1.9-0.2 1 0 1.9-0.1 1-0.2 1.9-0.4 1-0.2 1.9-0.5 0.9-0.2 1.8-0.6z"/>
		<path id="Path_93" class="s2" d="m40.5 712.4c12-4.8 26.1-18.9 30.8-30.9q0.4-0.9 0.7-1.8 0.3-0.9 0.5-1.9 0.2-0.9 0.3-1.9 0.1-0.9 0.2-1.9 0 1 0.1 1.9 0.1 1 0.4 1.9 0.2 1 0.5 1.9 0.2 0.9 0.6 1.8c4.8 12 19 26.1 30.9 30.9q0.9 0.4 1.8 0.6 0.9 0.3 1.9 0.5 0.9 0.2 1.9 0.4 0.9 0.1 1.9 0.1-1 0.1-1.9 0.2-1 0.1-1.9 0.3-1 0.2-1.9 0.5-0.9 0.3-1.8 0.7c-11.9 4.8-26.1 18.9-30.9 30.8q-0.4 0.9-0.6 1.8-0.3 0.9-0.5 1.9-0.3 0.9-0.4 1.9-0.1 0.9-0.1 1.9-0.1-1-0.2-1.9-0.1-1-0.3-1.9-0.2-1-0.5-1.9-0.3-0.9-0.7-1.8c-4.8-11.9-18.8-26.1-30.8-30.8q-0.9-0.4-1.8-0.7-0.9-0.3-1.9-0.5-0.9-0.2-1.9-0.3-0.9-0.1-1.9-0.2 1 0 1.9-0.1 1-0.2 1.9-0.4 1-0.2 1.9-0.5 0.9-0.2 1.8-0.6z"/>
		<path id="Path_95" class="s3" d="m0.5 632.4c12-4.9 26.1-18.9 30.8-30.9q0.4-0.9 0.7-1.8 0.3-0.9 0.5-1.9 0.2-0.9 0.3-1.9 0.1-0.9 0.2-1.9 0 1 0.1 1.9 0.1 1 0.4 1.9 0.2 1 0.5 1.9 0.2 0.9 0.6 1.8c4.8 12 19 26.1 30.9 30.9q0.9 0.4 1.8 0.6 0.9 0.3 1.9 0.5 0.9 0.2 1.9 0.4 0.9 0.1 1.9 0.1-1 0.1-1.9 0.2-1 0.1-1.9 0.3-1 0.2-1.9 0.5-0.9 0.3-1.8 0.7c-11.9 4.7-26.1 18.9-30.9 30.8q-0.4 0.9-0.6 1.8-0.3 0.9-0.5 1.9-0.3 0.9-0.4 1.9-0.1 0.9-0.1 1.9-0.1-1-0.2-1.9-0.1-1-0.3-1.9-0.2-1-0.5-1.9-0.3-0.9-0.7-1.8c-4.8-11.9-18.8-26.1-30.8-30.8q-0.9-0.4-1.8-0.7-0.9-0.3-1.9-0.5-0.9-0.2-1.9-0.3-0.9-0.1-1.9-0.2 1 0 1.9-0.1 1-0.2 1.9-0.4 1-0.2 1.9-0.5 0.9-0.2 1.8-0.6z"/>
		<path id="Path_118" class="s4" d="m80.5 632.4c12-4.9 26.1-18.9 30.8-30.9q0.4-0.9 0.7-1.8 0.3-0.9 0.5-1.9 0.2-0.9 0.3-1.9 0.1-0.9 0.2-1.9 0 1 0.1 1.9 0.1 1 0.4 1.9 0.2 1 0.5 1.9 0.2 0.9 0.6 1.8c4.8 12 19 26.1 30.9 30.9q0.9 0.4 1.8 0.6 0.9 0.3 1.9 0.5 0.9 0.2 1.9 0.4 0.9 0.1 1.9 0.1-1 0.1-1.9 0.2-1 0.1-1.9 0.3-1 0.2-1.9 0.5-0.9 0.3-1.8 0.7c-11.9 4.7-26.1 18.9-30.9 30.8q-0.4 0.9-0.6 1.8-0.3 0.9-0.5 1.9-0.3 0.9-0.4 1.9-0.1 0.9-0.1 1.9-0.1-1-0.2-1.9-0.1-1-0.3-1.9-0.2-1-0.5-1.9-0.3-0.9-0.7-1.8c-4.8-11.9-18.8-26.1-30.8-30.8q-0.9-0.4-1.8-0.7-0.9-0.3-1.9-0.5-0.9-0.2-1.9-0.3-0.9-0.1-1.9-0.2 1 0 1.9-0.1 1-0.2 1.9-0.4 1-0.2 1.9-0.5 0.9-0.2 1.8-0.6z"/>
		<path id="Path_119" class="s5" d="m160.5 632.4c12-4.9 26.1-18.9 30.8-30.9q0.4-0.9 0.7-1.8 0.3-0.9 0.5-1.9 0.2-0.9 0.3-1.9 0.1-0.9 0.2-1.9 0 1 0.1 1.9 0.1 1 0.4 1.9 0.2 1 0.5 1.9 0.2 0.9 0.6 1.8c4.8 12 19 26.1 30.9 30.9q0.9 0.4 1.8 0.6 0.9 0.3 1.9 0.5 0.9 0.2 1.9 0.4 0.9 0.1 1.9 0.1-1 0.1-1.9 0.2-1 0.1-1.9 0.3-1 0.2-1.9 0.5-0.9 0.3-1.8 0.7c-11.9 4.7-26.1 18.9-30.9 30.8q-0.4 0.9-0.6 1.8-0.3 0.9-0.5 1.9-0.3 0.9-0.4 1.9-0.1 0.9-0.1 1.9-0.1-1-0.2-1.9-0.1-1-0.3-1.9-0.2-1-0.5-1.9-0.3-0.9-0.7-1.8c-4.8-11.9-18.8-26.1-30.8-30.8q-0.9-0.4-1.8-0.7-0.9-0.3-1.9-0.5-0.9-0.2-1.9-0.3-0.9-0.1-1.9-0.2 1 0 1.9-0.1 1-0.2 1.9-0.4 1-0.2 1.9-0.5 0.9-0.2 1.8-0.6z"/>
		<path id="Path_120" class="s6" d="m240.5 632.4c12-4.9 26.1-18.9 30.8-30.9q0.4-0.9 0.7-1.8 0.3-0.9 0.5-1.9 0.2-0.9 0.3-1.9 0.1-0.9 0.2-1.9 0 1 0.1 1.9 0.1 1 0.4 1.9 0.2 1 0.5 1.9 0.2 0.9 0.6 1.8c4.8 12 19 26.1 30.9 30.9q0.9 0.4 1.8 0.6 0.9 0.3 1.9 0.5 0.9 0.2 1.9 0.4 0.9 0.1 1.9 0.1-1 0.1-1.9 0.2-1 0.1-1.9 0.3-1 0.2-1.9 0.5-0.9 0.3-1.8 0.7c-11.9 4.7-26.1 18.9-30.9 30.8q-0.4 0.9-0.6 1.8-0.3 0.9-0.5 1.9-0.3 0.9-0.4 1.9-0.1 0.9-0.1 1.9-0.1-1-0.2-1.9-0.1-1-0.3-1.9-0.2-1-0.5-1.9-0.3-0.9-0.7-1.8c-4.8-11.9-18.8-26.1-30.8-30.8q-0.9-0.4-1.8-0.7-0.9-0.3-1.9-0.5-0.9-0.2-1.9-0.3-0.9-0.1-1.9-0.2 1 0 1.9-0.1 1-0.2 1.9-0.4 1-0.2 1.9-0.5 0.9-0.2 1.8-0.6z"/>
		<path id="Path_121" class="s7" d="m320.5 632.4c12-4.9 26.1-18.9 30.8-30.9q0.4-0.9 0.7-1.8 0.3-0.9 0.5-1.9 0.2-0.9 0.3-1.9 0.1-0.9 0.2-1.9 0 1 0.1 1.9 0.1 1 0.4 1.9 0.2 1 0.5 1.9 0.2 0.9 0.6 1.8c4.8 12 19 26.1 30.9 30.9q0.9 0.4 1.8 0.6 0.9 0.3 1.9 0.5 0.9 0.2 1.9 0.4 0.9 0.1 1.9 0.1-1 0.1-1.9 0.2-1 0.1-1.9 0.3-1 0.2-1.9 0.5-0.9 0.3-1.8 0.7c-11.9 4.7-26.1 18.9-30.9 30.8q-0.4 0.9-0.6 1.8-0.3 0.9-0.5 1.9-0.3 0.9-0.4 1.9-0.1 0.9-0.1 1.9-0.1-1-0.2-1.9-0.1-1-0.3-1.9-0.2-1-0.5-1.9-0.3-0.9-0.7-1.8c-4.8-11.9-18.8-26.1-30.8-30.8q-0.9-0.4-1.8-0.7-0.9-0.3-1.9-0.5-0.9-0.2-1.9-0.3-0.9-0.1-1.9-0.2 1 0 1.9-0.1 1-0.2 1.9-0.4 1-0.2 1.9-0.5 0.9-0.2 1.8-0.6z"/>
		<path id="Subtraction_15" class="s1" d="m232.2 794h-78.4q0.8-0.1 1.7-0.2 0.9-0.1 1.7-0.3 0.9-0.3 1.7-0.5 0.8-0.3 1.6-0.6c12-4.8 26.1-19 30.8-30.9q0.4-0.9 0.7-1.8 0.3-0.9 0.5-1.9 0.2-0.9 0.3-1.9 0.1-0.9 0.2-1.9 0 1 0.1 1.9 0.2 1 0.4 1.9 0.2 1 0.5 1.9 0.2 0.9 0.6 1.8 0.5 1.3 1.1 2.4 0.6 1.2 1.2 2.4 0.7 1.1 1.4 2.2 0.7 1.1 1.5 2.2 0.8 1.2 1.7 2.4 0.9 1.1 1.9 2.2 0.9 1.2 1.9 2.2 1 1.1 2.1 2.1 1 1.1 2.1 2.1 1.1 1 2.2 1.9 1.1 1 2.3 1.9 1.1 0.9 2.3 1.7 1.1 0.8 2.2 1.5 1.1 0.7 2.2 1.4 1.2 0.6 2.4 1.2 1.2 0.6 2.4 1.1 0.8 0.3 1.6 0.6 0.8 0.2 1.7 0.4 0.8 0.2 1.7 0.4 0.8 0.1 1.7 0.2z"/>
		<path id="Path_97" class="s2" d="m200.5 712.4c12-4.8 26.1-18.9 30.8-30.9q0.4-0.9 0.7-1.8 0.3-0.9 0.5-1.9 0.2-0.9 0.3-1.9 0.1-0.9 0.2-1.9 0 1 0.1 1.9 0.1 1 0.4 1.9 0.2 1 0.5 1.9 0.2 0.9 0.6 1.8c4.8 12 19 26.1 30.9 30.9q0.9 0.4 1.8 0.6 0.9 0.3 1.9 0.5 0.9 0.2 1.9 0.4 0.9 0.1 1.9 0.1-1 0.1-1.9 0.2-1 0.1-1.9 0.3-1 0.2-1.9 0.5-0.9 0.3-1.8 0.7c-11.9 4.8-26.1 18.9-30.9 30.8q-0.4 0.9-0.6 1.8-0.3 0.9-0.5 1.9-0.3 0.9-0.4 1.9-0.1 0.9-0.1 1.9-0.1-1-0.2-1.9-0.1-1-0.3-1.9-0.2-1-0.5-1.9-0.3-0.9-0.7-1.8c-4.8-11.9-18.8-26.1-30.8-30.8q-0.9-0.4-1.8-0.7-0.9-0.3-1.9-0.5-0.9-0.2-1.9-0.3-0.9-0.1-1.9-0.2 1 0 1.9-0.1 1-0.2 1.9-0.4 1-0.2 1.9-0.5 0.9-0.2 1.8-0.6z"/>
		<path id="Subtraction_16" class="s1" d="m312.2 794h-78.4q0.8-0.1 1.7-0.2 0.9-0.1 1.7-0.3 0.9-0.3 1.7-0.5 0.8-0.3 1.6-0.6 1.3-0.5 2.4-1.1 1.2-0.6 2.4-1.2 1.1-0.7 2.2-1.4 1.1-0.7 2.2-1.5 1.2-0.9 2.3-1.8 1.2-0.9 2.3-1.8 1.1-1 2.2-1.9 1.1-1 2.1-2.1 1-1 2-2.1 1-1.1 2-2.2 0.9-1.1 1.8-2.2 0.9-1.2 1.8-2.4 0.8-1.1 1.5-2.2 0.7-1.1 1.3-2.2 0.7-1.2 1.3-2.4 0.5-1.1 1-2.4 0.4-0.9 0.7-1.8 0.3-0.9 0.5-1.9 0.2-0.9 0.3-1.9 0.1-0.9 0.2-1.9 0 1 0.1 1.9 0.2 1 0.4 1.9 0.2 1 0.5 1.9 0.2 0.9 0.6 1.8 0.5 1.3 1.1 2.4 0.6 1.2 1.2 2.4 0.7 1.1 1.4 2.2 0.7 1.1 1.5 2.2 0.8 1.2 1.7 2.4 0.9 1.1 1.9 2.2 1 1.2 1.9 2.2 1 1.1 2.1 2.1 1 1.1 2.1 2.1 1.1 1 2.2 1.9 1.1 1 2.3 1.9 1.1 0.9 2.3 1.7 1.1 0.8 2.2 1.5 1.1 0.7 2.2 1.4 1.2 0.6 2.4 1.2 1.2 0.6 2.4 1.1 0.8 0.3 1.6 0.6 0.8 0.2 1.7 0.4 0.8 0.2 1.7 0.4 0.8 0.1 1.7 0.2z"/>
		<path id="Path_103" class="s2" d="m280.5 712.4c12-4.8 26.1-18.9 30.8-30.9q0.4-0.9 0.7-1.8 0.3-0.9 0.5-1.9 0.2-0.9 0.3-1.9 0.1-0.9 0.2-1.9 0 1 0.1 1.9 0.1 1 0.4 1.9 0.2 1 0.5 1.9 0.2 0.9 0.6 1.8c4.8 12 19 26.1 30.9 30.9q0.9 0.4 1.8 0.6 0.9 0.3 1.9 0.5 0.9 0.2 1.9 0.4 0.9 0.1 1.9 0.1-1 0.1-1.9 0.2-1 0.1-1.9 0.3-1 0.2-1.9 0.5-0.9 0.3-1.8 0.7c-11.9 4.8-26.1 18.9-30.9 30.8q-0.4 0.9-0.6 1.8-0.3 0.9-0.5 1.9-0.3 0.9-0.4 1.9-0.1 0.9-0.1 1.9-0.1-1-0.2-1.9-0.1-1-0.3-1.9-0.2-1-0.5-1.9-0.3-0.9-0.7-1.8c-4.8-11.9-18.8-26.1-30.8-30.8q-0.9-0.4-1.8-0.7-0.9-0.3-1.9-0.5-0.9-0.2-1.9-0.3-0.9-0.1-1.9-0.2 1 0 1.9-0.1 1-0.2 1.9-0.4 1-0.2 1.9-0.5 0.9-0.2 1.8-0.6z"/>
		<path id="Subtraction_17" class="s1" d="m392.2 794h-78.4q0.8-0.1 1.7-0.2 0.9-0.1 1.7-0.3 0.9-0.3 1.7-0.5 0.8-0.3 1.6-0.6 1.3-0.5 2.4-1.1 1.2-0.6 2.4-1.2 1.1-0.7 2.2-1.4 1.1-0.7 2.2-1.5 1.2-0.9 2.3-1.8 1.2-0.9 2.3-1.8 1.1-1 2.2-1.9 1.1-1 2.1-2.1 1-1 2-2.1 1-1.1 2-2.2 0.9-1.1 1.8-2.2 0.9-1.2 1.8-2.4 0.8-1.1 1.5-2.2 0.7-1.1 1.3-2.2 0.7-1.2 1.3-2.4 0.5-1.1 1-2.4 0.4-0.9 0.7-1.8 0.3-0.9 0.5-1.9 0.2-0.9 0.3-1.9 0.1-0.9 0.2-1.9 0 1 0.1 1.9 0.2 1 0.4 1.9 0.2 1 0.5 1.9 0.2 0.9 0.6 1.8 0.5 1.3 1.1 2.4 0.6 1.2 1.2 2.4 0.7 1.1 1.4 2.2 0.7 1.1 1.5 2.2 0.8 1.2 1.7 2.4 0.9 1.1 1.9 2.2 1 1.2 1.9 2.2 1 1.1 2.1 2.1 1 1.1 2.1 2.1 1.1 1 2.2 1.9 1.1 1 2.3 1.9 1.1 0.9 2.3 1.7 1.1 0.8 2.2 1.5 1.1 0.7 2.2 1.4 1.2 0.6 2.4 1.2 1.2 0.6 2.4 1.1 0.8 0.3 1.6 0.6 0.8 0.2 1.7 0.4 0.8 0.2 1.7 0.4 0.8 0.1 1.7 0.2z"/>
		<path id="Path_107" class="s2" d="m360.5 712.4c12-4.8 26.1-18.9 30.8-30.9q0.4-0.9 0.7-1.8 0.3-0.9 0.5-1.9 0.2-0.9 0.3-1.9 0.1-0.9 0.2-1.9 0 1 0.1 1.9 0.1 1 0.4 1.9 0.2 1 0.5 1.9 0.2 0.9 0.6 1.8c4.8 12 19 26.1 30.9 30.9q0.9 0.4 1.8 0.6 0.9 0.3 1.9 0.5 0.9 0.2 1.9 0.4 0.9 0.1 1.9 0.1-1 0.1-1.9 0.2-1 0.1-1.9 0.3-1 0.2-1.9 0.5-0.9 0.3-1.8 0.7c-11.9 4.8-26.1 18.9-30.9 30.8q-0.4 0.9-0.6 1.8-0.3 0.9-0.5 1.9-0.3 0.9-0.4 1.9-0.1 0.9-0.1 1.9-0.1-1-0.2-1.9-0.1-1-0.3-1.9-0.2-1-0.5-1.9-0.3-0.9-0.7-1.8c-4.8-11.9-18.8-26.1-30.8-30.8q-0.9-0.4-1.8-0.7-0.9-0.3-1.9-0.5-0.9-0.2-1.9-0.3-0.9-0.1-1.9-0.2 1 0 1.9-0.1 1-0.2 1.9-0.4 1-0.2 1.9-0.5 0.9-0.2 1.8-0.6z"/>
		<path id="Subtraction_18" class="s1" d="m433 794h-39.2q0.8-0.1 1.7-0.2 0.9-0.1 1.7-0.4 0.9-0.2 1.7-0.4 0.8-0.3 1.6-0.6 1.3-0.5 2.4-1.1 1.2-0.6 2.4-1.2 1.1-0.7 2.2-1.4 1.1-0.7 2.2-1.5 1.2-0.9 2.3-1.8 1.2-0.9 2.3-1.8 1.1-1 2.2-1.9 1.1-1 2.1-2.1 1-1 2-2.1 1-1.1 2-2.2 0.9-1.1 1.8-2.2 0.9-1.2 1.8-2.4 0.8-1.1 1.5-2.2 0.7-1.1 1.3-2.2 0.7-1.2 1.3-2.4 0.5-1.1 1-2.4 0.4-0.8 0.7-1.8 0.3-0.9 0.5-1.8 0.2-0.9 0.3-1.9 0.1-1 0.2-1.9 0 0.3 0 0.7c0 0 0 39.2 0 39.2z"/>
		<path id="Subtraction_10" class="s1" d="m-7 753.8q0.1-0.9 0.2-1.8 0.1-1 0.3-1.9 0.2-0.9 0.5-1.9 0.3-0.9 0.7-1.7c4.8-12 18.9-26.1 30.8-30.8q0.9-0.4 1.8-0.7 0.9-0.3 1.9-0.5 0.9-0.2 1.9-0.3 0.9-0.1 1.9-0.2-1 0-1.9-0.1-1-0.2-1.9-0.4-1-0.2-1.9-0.5-0.9-0.2-1.8-0.6-1.2-0.5-2.4-1.1-1.2-0.6-2.4-1.2-1.1-0.7-2.2-1.4-1.1-0.7-2.2-1.5-1.2-0.9-2.3-1.8-1.2-0.9-2.3-1.8-1.1-1-2.2-1.9-1.1-1-2.1-2.1-1-1-2-2.1-1-1.1-2-2.2-0.9-1.1-1.8-2.2-0.9-1.2-1.8-2.4-0.7-1.1-1.5-2.2-0.7-1.1-1.3-2.2-0.7-1.2-1.2-2.4-0.6-1.1-1.1-2.4-0.4-0.8-0.7-1.8-0.3-0.9-0.5-1.8-0.2-0.9-0.3-1.9-0.1-1-0.2-1.9 0 0.3 0 0.7v78.4q0 0.3 0 0.6z"/>
		<path id="Subtraction_11" class="s8" d="m433 673.8q-0.1-0.9-0.2-1.9-0.1-0.9-0.3-1.8-0.2-0.9-0.5-1.9-0.3-0.9-0.7-1.7c-4.8-12-18.9-26.1-30.8-30.8q-0.9-0.4-1.8-0.7-0.9-0.3-1.8-0.5-1-0.2-2-0.3-0.9-0.1-1.9-0.2 1 0 1.9-0.1 1-0.2 2-0.4 0.9-0.2 1.8-0.5 0.9-0.2 1.8-0.6 1.3-0.5 2.4-1.1 1.2-0.6 2.4-1.2 1.1-0.7 2.2-1.4 1.1-0.7 2.2-1.5 1.2-0.9 2.4-1.8 1.1-0.9 2.2-1.8 1.1-1 2.2-1.9 1.1-1 2.1-2.1 1.1-1 2-2.1 1-1.1 2-2.2 0.9-1.1 1.8-2.2 0.9-1.2 1.8-2.4 0.8-1.1 1.5-2.2 0.7-1.1 1.3-2.2 0.7-1.2 1.3-2.4 0.5-1.1 1-2.4 0.4-0.8 0.7-1.8 0.3-0.9 0.5-1.8 0.2-0.9 0.3-1.9 0.1-0.9 0.2-1.9 0 0.3 0 0.7v78.4q0 0.3 0 0.6z"/>
	</g>
</svg>